<?xml version="1.0" encoding="utf-8"?>
<!-- Generator: Adobe Illustrator 28.1.0, SVG Export Plug-In . SVG Version: 6.00 Build 0)  -->
<svg version="1.1" id="Layer_1" xmlns="http://www.w3.org/2000/svg" xmlns:xlink="http://www.w3.org/1999/xlink" x="0px" y="0px"
	 viewBox="0 0 435 65.7" style="enable-background:new 0 0 435 65.7;" xml:space="preserve">
<style type="text/css">
	.st0{fill:#FFFFFF;}
	.st1{fill:#F27A1A;}
</style>
<path class="st0" d="M0,23.3v-6.1h27.6v6C27.6,23.3,0,23.3,0,23.3z M19.7,52.1c-2.1,0-3.9-0.4-5.6-1.3c-1.7-0.9-3.1-2.2-4.1-3.9
	c-1-1.7-1.5-3.8-1.5-6.3V2.9h6.5v37.6c0,1.9,0.5,3.3,1.5,4.2c1,0.9,2.2,1.4,3.7,1.4c1.1,0,2-0.2,2.8-0.6c0.8-0.4,1.6-0.9,2.3-1.7
	l4,4c-1.2,1.4-2.5,2.5-4,3.2C23.7,51.8,21.9,52.1,19.7,52.1L19.7,52.1z"/>
<path class="st0" d="M34.1,51.4V17.2h6.5v34.2H34.1z M40.6,32l-2.5-1.1c0-4.4,1-7.9,3-10.4c2-2.6,4.9-3.9,8.7-3.9
	c1.7,0,3.3,0.3,4.7,0.9s2.7,1.6,3.9,3l-4.2,4.4c-0.7-0.8-1.5-1.3-2.4-1.7c-0.9-0.3-1.9-0.5-3-0.5c-2.4,0-4.4,0.8-5.9,2.3
	S40.6,28.8,40.6,32z"/>
<path class="st0" d="M76.3,52.1c-3.5,0-6.5-0.8-9.2-2.3s-4.9-3.7-6.4-6.4c-1.6-2.7-2.4-5.7-2.4-9.1s0.8-6.4,2.3-9.1s3.7-4.8,6.3-6.4
	c2.7-1.6,5.7-2.3,9-2.3c3.1,0,5.9,0.7,8.3,2.2s4.4,3.4,5.7,6c1.4,2.5,2.1,5.5,2.1,8.7c0,0.5,0,1-0.1,1.5s-0.1,1.2-0.3,1.8H62.8v-5.4
	h25.4l-2.4,2.1c0-2.3-0.4-4.3-1.2-5.9c-0.8-1.6-2-2.9-3.5-3.7c-1.5-0.9-3.3-1.3-5.4-1.3s-4.2,0.5-5.8,1.4c-1.7,1-3,2.3-3.9,4
	c-0.9,1.7-1.4,3.8-1.4,6.1s0.5,4.5,1.4,6.3s2.3,3.2,4.1,4.2c1.8,1,3.8,1.5,6.1,1.5c1.9,0,3.7-0.3,5.3-1c1.6-0.7,3-1.7,4.1-3l4.2,4.2
	c-1.7,1.9-3.7,3.4-6.1,4.4C81.5,51.7,79,52.2,76.3,52.1L76.3,52.1z"/>
<path class="st0" d="M97.6,51.4V17.2h6.5v34.2H97.6z M121.8,51.4V31.5c0-2.6-0.8-4.7-2.4-6.4s-3.7-2.5-6.3-2.5
	c-1.7,0-3.3,0.4-4.6,1.1c-1.3,0.8-2.4,1.8-3.2,3.2c-0.8,1.3-1.2,2.9-1.2,4.6l-2.7-1.5c0-2.6,0.6-4.9,1.7-6.9c1.2-2,2.8-3.6,4.8-4.8
	s4.4-1.8,7-1.8s4.9,0.6,6.9,1.9c2,1.3,3.6,3,4.7,5.1c1.2,2.1,1.7,4.3,1.7,6.7v21.2L121.8,51.4L121.8,51.4z"/>
<path class="st0" d="M150.1,52.1c-3.1,0-5.9-0.8-8.4-2.3c-2.5-1.6-4.5-3.7-5.9-6.4s-2.2-5.7-2.2-9.1s0.7-6.4,2.2-9.1
	c1.5-2.7,3.4-4.8,5.9-6.4s5.3-2.4,8.4-2.4c2.6,0,4.9,0.5,7,1.6s3.7,2.6,5,4.5c1.3,1.9,2,4.1,2.1,6.6v10.3c-0.1,2.5-0.8,4.6-2.1,6.5
	s-2.9,3.4-5,4.5C155,51.6,152.7,52.1,150.1,52.1L150.1,52.1z M151.1,46c2.2,0,4.1-0.5,5.7-1.5s2.9-2.4,3.8-4.1
	c0.9-1.8,1.4-3.8,1.4-6s-0.5-4.3-1.4-6.1c-0.9-1.8-2.2-3.1-3.8-4.1s-3.5-1.5-5.7-1.5s-4.1,0.5-5.7,1.5c-1.6,1-2.9,2.4-3.9,4.1
	c-0.9,1.8-1.4,3.8-1.4,6.1s0.5,4.3,1.4,6.1c0.9,1.8,2.2,3.2,3.9,4.1S149,46,151.1,46L151.1,46z M168.1,51.4h-6.6v-9.2l1.2-8.3
	l-1.2-8.3V0h6.6C168.1,0,168.1,51.4,168.1,51.4z"/>
<path class="st0" d="M187.3,51.7l-14.8-34.5h7.2l11,27h-2.3l11.6-27h7.2l-16,34.5H187.3L187.3,51.7z M177.6,65.7l10-20.7l3.7,6.6
	l-6.5,14H177.6z"/>
<path class="st0" d="M225.4,52.1c-3.3,0-6.3-0.8-9-2.4c-2.7-1.6-4.8-3.7-6.4-6.4c-1.6-2.7-2.4-5.8-2.4-9.1s0.8-6.3,2.4-9
	c1.6-2.7,3.7-4.8,6.4-6.4c2.7-1.6,5.7-2.4,9-2.4s6.4,0.8,9.1,2.3s4.9,3.7,6.4,6.4s2.4,5.7,2.4,9s-0.8,6.4-2.4,9.1s-3.7,4.9-6.4,6.4
	C231.8,51.3,228.7,52.1,225.4,52.1z M225.4,45.9c2.2,0,4.1-0.5,5.8-1.5c1.7-1,3-2.4,4-4.1s1.4-3.8,1.4-6s-0.5-4.2-1.5-5.9
	c-1-1.7-2.3-3.1-4-4.1c-1.7-1-3.6-1.5-5.8-1.5s-4,0.5-5.7,1.5c-1.7,1-3,2.3-4,4.1s-1.4,3.7-1.4,5.9s0.5,4.3,1.4,6s2.3,3.1,4,4.1
	C221.3,45.4,223.2,45.9,225.4,45.9L225.4,45.9z"/>
<path class="st0" d="M249,51.4V0h6.5v51.4H249z"/>
<path class="st1" d="M287.4,52.1c-3.6,0-6.9-0.7-10-2s-5.8-3.2-8-5.5c-2.3-2.3-4-5.1-5.3-8.2s-1.9-6.5-1.9-10s0.6-7,1.9-10.1
	s3-5.8,5.3-8.2s4.9-4.2,8-5.5c3.1-1.3,6.4-2,9.9-2c4,0,7.5,0.7,10.4,2c3,1.3,5.6,3.2,7.9,5.5l-4.7,4.7c-1.6-1.8-3.5-3.2-5.8-4.2
	s-4.9-1.5-7.9-1.5c-2.6,0-5,0.5-7.2,1.4c-2.2,0.9-4.1,2.3-5.8,4s-2.9,3.8-3.8,6.1c-0.9,2.4-1.3,4.9-1.3,7.7s0.4,5.4,1.3,7.7
	c0.9,2.3,2.1,4.4,3.8,6.1s3.5,3.1,5.8,4c2.2,0.9,4.6,1.4,7.3,1.4c3.1,0,5.8-0.5,8.1-1.5c2.3-1,4.2-2.4,5.8-4.2l4.7,4.7
	c-2.3,2.3-5,4.2-8.1,5.5S291.3,52.1,287.4,52.1L287.4,52.1z"/>
<path class="st1" d="M311.7,51.4V0h6.5v51.4H311.7z"/>
<path class="st1" d="M341.8,52.1c-3.3,0-6.3-0.8-9-2.4c-2.7-1.6-4.8-3.7-6.4-6.4c-1.6-2.7-2.4-5.8-2.4-9.1s0.8-6.3,2.4-9
	c1.6-2.7,3.7-4.8,6.4-6.4c2.7-1.6,5.7-2.4,9-2.4s6.4,0.8,9.1,2.3s4.9,3.7,6.4,6.4c1.6,2.7,2.4,5.7,2.4,9s-0.8,6.4-2.4,9.1
	s-3.7,4.9-6.4,6.4C348.2,51.3,345.1,52.1,341.8,52.1z M341.8,45.9c2.2,0,4.1-0.5,5.8-1.5s3-2.4,4-4.1s1.4-3.8,1.4-6
	s-0.5-4.2-1.5-5.9c-1-1.7-2.3-3.1-4-4.1c-1.7-1-3.6-1.5-5.8-1.5s-4,0.5-5.7,1.5c-1.7,1-3,2.3-4,4.1s-1.4,3.7-1.4,5.9s0.5,4.3,1.4,6
	s2.3,3.1,4,4.1S339.7,45.9,341.8,45.9L341.8,45.9z"/>
<path class="st1" d="M365.5,51.4V17.2h6.5v34.2H365.5z M389.6,51.4V31.5c0-2.6-0.8-4.7-2.4-6.4c-1.6-1.7-3.7-2.5-6.3-2.5
	c-1.7,0-3.3,0.4-4.6,1.1c-1.3,0.8-2.4,1.8-3.2,3.2c-0.8,1.3-1.1,2.9-1.1,4.6l-2.7-1.5c0-2.6,0.6-4.9,1.7-6.9c1.1-2,2.8-3.6,4.8-4.8
	s4.4-1.8,7-1.8s4.9,0.6,6.9,1.9c2,1.3,3.6,3,4.7,5.1c1.1,2.1,1.7,4.3,1.7,6.7v21.2L389.6,51.4L389.6,51.4z"/>
<path class="st1" d="M419.3,52.1c-3.5,0-6.5-0.8-9.2-2.3s-4.9-3.7-6.4-6.4c-1.6-2.7-2.4-5.7-2.4-9.1s0.8-6.4,2.3-9.1
	s3.7-4.8,6.3-6.4c2.7-1.6,5.6-2.3,9-2.3c3.1,0,5.9,0.7,8.4,2.2s4.4,3.4,5.7,6c1.4,2.5,2,5.5,2,8.7c0,0.5,0,1-0.1,1.5
	c0,0.5-0.1,1.2-0.3,1.8h-28.9v-5.4h25.4l-2.4,2.1c0-2.3-0.4-4.3-1.2-5.9c-0.8-1.6-2-2.9-3.5-3.7c-1.5-0.9-3.3-1.3-5.4-1.3
	s-4.1,0.5-5.8,1.4c-1.7,1-3,2.3-3.9,4c-0.9,1.7-1.4,3.8-1.4,6.1s0.5,4.5,1.4,6.3s2.3,3.2,4.1,4.2c1.8,1,3.8,1.5,6.1,1.5
	c1.9,0,3.7-0.3,5.3-1c1.6-0.7,3-1.7,4.1-3l4.2,4.2c-1.7,1.9-3.7,3.4-6,4.4C424.5,51.7,422,52.2,419.3,52.1L419.3,52.1z"/>
</svg>
