<?xml version="1.0" encoding="UTF-8"?>
<svg id="Layer_1" data-name="Layer 1" xmlns="http://www.w3.org/2000/svg" viewBox="0 0 435.02 65.74">
  <defs>
    <style>
      .cls-1, .cls-2 {
        stroke-width: 0px;
      }

      .cls-2 {
        fill: #f27a1a;
      }
    </style>
  </defs>
  <path class="cls-1" d="m0,23.26v-6.05h27.65v6.05H0Zm19.66,28.87c-2.06,0-3.95-.44-5.65-1.33-1.7-.89-3.06-2.18-4.07-3.89-1.01-1.7-1.51-3.8-1.51-6.3V2.88h6.48v37.58c0,1.87.49,3.28,1.48,4.21.98.94,2.22,1.4,3.71,1.4,1.06,0,2-.19,2.84-.58.84-.38,1.6-.94,2.27-1.66l3.96,3.96c-1.2,1.44-2.53,2.52-4,3.24-1.46.72-3.3,1.08-5.51,1.08Z"/>
  <path class="cls-1" d="m34.13,51.41V17.21h6.48v34.2h-6.48Zm6.48-19.44l-2.45-1.15c0-4.37,1.01-7.85,3.02-10.44,2.02-2.59,4.92-3.89,8.71-3.89,1.73,0,3.29.3,4.68.9,1.39.6,2.69,1.6,3.89,2.99l-4.25,4.39c-.72-.77-1.51-1.32-2.38-1.66-.86-.33-1.87-.5-3.02-.5-2.4,0-4.37.77-5.9,2.3s-2.3,3.89-2.3,7.06Z"/>
  <path class="cls-1" d="m76.32,52.13c-3.46,0-6.54-.78-9.25-2.34-2.71-1.56-4.86-3.68-6.44-6.37-1.58-2.69-2.38-5.74-2.38-9.14s.78-6.38,2.34-9.07c1.56-2.69,3.67-4.81,6.34-6.37,2.66-1.56,5.65-2.34,8.96-2.34,3.12,0,5.9.72,8.35,2.16,2.45,1.44,4.36,3.43,5.72,5.98,1.37,2.54,2.05,5.45,2.05,8.71,0,.48-.02,1-.07,1.55-.05.55-.14,1.17-.29,1.84h-28.87v-5.4h25.42l-2.38,2.09c0-2.3-.41-4.26-1.22-5.87-.82-1.61-1.97-2.86-3.46-3.74-1.49-.89-3.29-1.33-5.4-1.33s-4.15.48-5.83,1.44c-1.68.96-2.98,2.3-3.89,4.03-.91,1.73-1.37,3.77-1.37,6.12s.48,4.5,1.44,6.3c.96,1.8,2.33,3.19,4.1,4.18,1.78.98,3.82,1.48,6.12,1.48,1.92,0,3.68-.33,5.29-1.01,1.61-.67,2.99-1.68,4.14-3.02l4.18,4.25c-1.68,1.92-3.7,3.38-6.05,4.39-2.35,1.01-4.87,1.51-7.56,1.51Z"/>
  <path class="cls-1" d="m97.63,51.41V17.21h6.48v34.2h-6.48Zm24.12,0v-19.94c0-2.59-.8-4.73-2.41-6.41-1.61-1.68-3.71-2.52-6.3-2.52-1.73,0-3.26.38-4.61,1.15-1.34.77-2.4,1.82-3.17,3.17-.77,1.34-1.15,2.88-1.15,4.61l-2.66-1.51c0-2.59.58-4.9,1.73-6.91,1.15-2.02,2.76-3.61,4.82-4.79,2.06-1.18,4.39-1.76,6.98-1.76s4.88.65,6.88,1.94c1.99,1.3,3.56,2.99,4.72,5.08,1.15,2.09,1.73,4.31,1.73,6.66v21.24h-6.55Z"/>
  <path class="cls-1" d="m150.05,52.13c-3.12,0-5.93-.78-8.42-2.34-2.5-1.56-4.48-3.68-5.94-6.37-1.46-2.69-2.2-5.71-2.2-9.07s.73-6.38,2.2-9.07c1.46-2.69,3.44-4.82,5.94-6.41s5.3-2.38,8.42-2.38c2.59,0,4.92.54,6.98,1.62,2.06,1.08,3.73,2.57,5,4.46,1.27,1.9,1.98,4.09,2.12,6.59v10.3c-.14,2.45-.84,4.63-2.09,6.55-1.25,1.92-2.9,3.42-4.97,4.5-2.06,1.08-4.42,1.62-7.06,1.62Zm1.08-6.12c2.16,0,4.06-.5,5.69-1.51,1.63-1.01,2.9-2.39,3.82-4.14.91-1.75,1.37-3.76,1.37-6.01s-.46-4.33-1.37-6.08c-.91-1.75-2.19-3.13-3.82-4.14-1.63-1.01-3.53-1.51-5.69-1.51s-4.06.49-5.69,1.48c-1.63.98-2.92,2.35-3.85,4.1-.94,1.75-1.4,3.78-1.4,6.08s.47,4.34,1.4,6.12c.94,1.78,2.23,3.16,3.89,4.14,1.66.98,3.54,1.48,5.65,1.48Zm16.99,5.4h-6.55v-9.22l1.22-8.35-1.22-8.28V0h6.55v51.41Z"/>
  <path class="cls-1" d="m187.34,51.7l-14.83-34.49h7.2l11.02,27h-2.3l11.59-27h7.2l-15.98,34.49h-3.89Zm-9.79,14.04l10.01-20.66,3.67,6.62-6.48,14.04h-7.2Z"/>
  <path class="cls-1" d="m225.36,52.13c-3.31,0-6.31-.79-9-2.38-2.69-1.58-4.82-3.73-6.41-6.44-1.58-2.71-2.38-5.75-2.38-9.11s.79-6.3,2.38-8.96c1.58-2.66,3.72-4.79,6.41-6.37,2.69-1.58,5.69-2.38,9-2.38s6.4.78,9.11,2.34c2.71,1.56,4.86,3.68,6.44,6.37,1.58,2.69,2.38,5.69,2.38,9s-.79,6.4-2.38,9.11-3.73,4.86-6.44,6.44c-2.71,1.58-5.75,2.38-9.11,2.38Zm0-6.26c2.21,0,4.15-.5,5.83-1.51,1.68-1.01,3-2.39,3.96-4.14.96-1.75,1.44-3.75,1.44-6.01s-.49-4.18-1.48-5.9c-.98-1.73-2.3-3.08-3.96-4.07-1.66-.98-3.59-1.48-5.8-1.48s-4.01.49-5.69,1.48c-1.68.98-3,2.34-3.96,4.07-.96,1.73-1.44,3.7-1.44,5.9s.48,4.26,1.44,6.01c.96,1.75,2.28,3.13,3.96,4.14,1.68,1.01,3.58,1.51,5.69,1.51Z"/>
  <path class="cls-1" d="m249.04,51.41V0h6.48v51.41h-6.48Z"/>
  <path class="cls-2" d="m287.42,52.13c-3.6,0-6.94-.66-10.01-1.98-3.07-1.32-5.75-3.16-8.03-5.51-2.28-2.35-4.04-5.09-5.29-8.21-1.25-3.12-1.87-6.46-1.87-10.01s.62-6.96,1.87-10.08c1.25-3.12,3-5.84,5.26-8.17,2.26-2.33,4.92-4.15,7.99-5.47,3.07-1.32,6.38-1.98,9.94-1.98,3.98,0,7.46.67,10.44,2.02,2.98,1.34,5.62,3.17,7.92,5.47l-4.68,4.68c-1.58-1.78-3.53-3.17-5.83-4.18s-4.92-1.51-7.85-1.51c-2.59,0-4.99.47-7.2,1.4-2.21.94-4.13,2.27-5.76,4-1.63,1.73-2.89,3.77-3.78,6.12-.89,2.35-1.33,4.92-1.33,7.7s.44,5.35,1.33,7.7c.89,2.35,2.15,4.39,3.78,6.12,1.63,1.73,3.55,3.06,5.76,4,2.21.94,4.63,1.4,7.27,1.4,3.12,0,5.83-.52,8.14-1.55,2.3-1.03,4.25-2.44,5.83-4.21l4.68,4.68c-2.3,2.35-5,4.2-8.1,5.54-3.1,1.34-6.59,2.02-10.48,2.02Z"/>
  <path class="cls-2" d="m311.68,51.41V0h6.48v51.41h-6.48Z"/>
  <path class="cls-2" d="m341.78,52.13c-3.31,0-6.31-.79-9-2.38-2.69-1.58-4.82-3.73-6.41-6.44-1.58-2.71-2.38-5.75-2.38-9.11s.79-6.3,2.38-8.96c1.58-2.66,3.72-4.79,6.41-6.37,2.69-1.58,5.69-2.38,9-2.38s6.4.78,9.11,2.34c2.71,1.56,4.86,3.68,6.44,6.37,1.58,2.69,2.38,5.69,2.38,9s-.79,6.4-2.38,9.11-3.73,4.86-6.44,6.44c-2.71,1.58-5.75,2.38-9.11,2.38Zm0-6.26c2.21,0,4.15-.5,5.83-1.51,1.68-1.01,3-2.39,3.96-4.14.96-1.75,1.44-3.75,1.44-6.01s-.49-4.18-1.48-5.9c-.98-1.73-2.3-3.08-3.96-4.07-1.66-.98-3.59-1.48-5.8-1.48s-4.01.49-5.69,1.48c-1.68.98-3,2.34-3.96,4.07-.96,1.73-1.44,3.7-1.44,5.9s.48,4.26,1.44,6.01c.96,1.75,2.28,3.13,3.96,4.14,1.68,1.01,3.58,1.51,5.69,1.51Z"/>
  <path class="cls-2" d="m365.46,51.41V17.21h6.48v34.2h-6.48Zm24.12,0v-19.94c0-2.59-.8-4.73-2.41-6.41-1.61-1.68-3.71-2.52-6.3-2.52-1.73,0-3.26.38-4.61,1.15-1.34.77-2.4,1.82-3.17,3.17-.77,1.34-1.15,2.88-1.15,4.61l-2.66-1.51c0-2.59.58-4.9,1.73-6.91,1.15-2.02,2.76-3.61,4.82-4.79,2.06-1.18,4.39-1.76,6.98-1.76s4.88.65,6.88,1.94c1.99,1.3,3.56,2.99,4.72,5.08,1.15,2.09,1.73,4.31,1.73,6.66v21.24h-6.55Z"/>
  <path class="cls-2" d="m419.32,52.13c-3.46,0-6.54-.78-9.25-2.34-2.71-1.56-4.86-3.68-6.44-6.37-1.58-2.69-2.38-5.74-2.38-9.14s.78-6.38,2.34-9.07c1.56-2.69,3.67-4.81,6.34-6.37,2.66-1.56,5.65-2.34,8.96-2.34,3.12,0,5.9.72,8.35,2.16,2.45,1.44,4.36,3.43,5.72,5.98,1.37,2.54,2.05,5.45,2.05,8.71,0,.48-.02,1-.07,1.55-.05.55-.14,1.17-.29,1.84h-28.87v-5.4h25.42l-2.38,2.09c0-2.3-.41-4.26-1.22-5.87-.82-1.61-1.97-2.86-3.46-3.74-1.49-.89-3.29-1.33-5.4-1.33s-4.15.48-5.83,1.44c-1.68.96-2.98,2.3-3.89,4.03-.91,1.73-1.37,3.77-1.37,6.12s.48,4.5,1.44,6.3c.96,1.8,2.33,3.19,4.1,4.18,1.78.98,3.82,1.48,6.12,1.48,1.92,0,3.68-.33,5.29-1.01,1.61-.67,2.99-1.68,4.14-3.02l4.18,4.25c-1.68,1.92-3.7,3.38-6.05,4.39-2.35,1.01-4.87,1.51-7.56,1.51Z"/>
</svg>